<svg height='100px' width='100px'  fill="#000000" xmlns="http://www.w3.org/2000/svg" xmlns:xlink="http://www.w3.org/1999/xlink" version="1.1" x="0px" y="0px" viewBox="0 0 64 64" style="enable-background:new 0 0 64 64;" xml:space="preserve"><g><path d="M44.7431641,33.3310547c-0.2353516-0.2612305-0.5908203-0.3823242-0.9335938-0.3125   c-0.3447266,0.0668945-0.6289063,0.3095703-0.7490234,0.6396484L39.2998047,44H37   c-0.3466797,0-0.6679688,0.1796875-0.8505859,0.4741211c-0.1826172,0.2949219-0.1992188,0.6630859-0.0439453,0.9731445   L37.3818359,48H33V37V27V10.9521484c0.6669922,0.5390625,1.5039063,1.2851563,2.4042969,2.2509766l1.4628906-1.3642578   c-2.3378906-2.5078125-4.28125-3.6547852-4.3632813-3.7026367c-0.0009766-0.0005493-0.0020752-0.0007324-0.0030518-0.0012817   c-0.0010376-0.0006104-0.00177-0.0015259-0.0028076-0.0021362c-0.0357666-0.0205078-0.0750122-0.0302734-0.1124878-0.0460205   c-0.0428467-0.0180054-0.0841675-0.0408936-0.1286011-0.0526123c-0.0500488-0.0133057-0.1015015-0.0148315-0.1526489-0.0202637   c-0.0344238-0.0036011-0.0682983-0.0131226-0.1029053-0.0131226c-0.0679321-0.0001831-0.1350098,0.0119629-0.2018433,0.0256348   c-0.0181274,0.0037231-0.0367432,0.0026245-0.0546875,0.0073242c-0.0526123,0.013855-0.1018066,0.0393677-0.1520996,0.0620117   c-0.0300293,0.0134277-0.0619507,0.0205688-0.0908203,0.0370483c-0.0010376,0.0006104-0.00177,0.0015259-0.0028076,0.0021362   c-0.0009766,0.0005493-0.0020752,0.0007324-0.0030518,0.0012817c-0.5060425,0.2957153-12.3165283,7.4020386-12.4880981,25.4713135   l-8.7511597,9.7235107C10.0917969,43.5146484,10,43.7529297,10,44v17c0,0.4833984,0.3457031,0.8974609,0.8212891,0.9838867   C10.8818359,61.9946289,10.9414063,62,11.0009766,62c0.4101563,0,0.7871094-0.253418,0.9355469-0.6489258L17.6933594,46H24   h1.3818359l-1.2763672,2.5527344c-0.1552734,0.3100586-0.1386719,0.6782227,0.0439453,0.9731445   C24.3320313,49.8203125,24.6533203,50,25,50h7h7c0.3466797,0,0.6679688-0.1796875,0.8505859-0.4741211   c0.1826172-0.2949219,0.1992188-0.6630859,0.0439453-0.9731445L38.6181641,46H40h6.3066406l5.7568359,15.3510742   C52.2119141,61.746582,52.5888672,62,52.9990234,62c0.0595703,0,0.1191406-0.0053711,0.1796875-0.0161133   C53.6542969,61.8974609,54,61.4833984,54,61V44c0-0.2470703-0.0917969-0.4853516-0.2568359-0.6689453L44.7431641,33.3310547z    M31,35.8735352C29.2763672,35.4282227,28,33.8603516,28,32s1.2763672-3.4282227,3-3.8735352V35.8735352z M31,10.9638672V20   h-6.9768677C26.2685547,15.3262329,29.2347412,12.4077759,31,10.9638672z M17,44   c-0.4169922,0-0.7900391,0.2587891-0.9365234,0.6489258L12,55.4853516V44.3837891l7.6289063-8.4770508L22.5722656,44H17z    M24.7001953,44L21,33.824707C21.0214844,29.12854,21.9043579,25.2202148,23.1630859,22H31v4.090332   C28.1668701,26.5686646,26,29.0327759,26,32s2.1668701,5.4313354,5,5.909668V44h-4H24.7001953z M27.6181641,46H31v2h-4.3818359   L27.6181641,46z M52,55.4853516l-4.0634766-10.8364258C47.7900391,44.2587891,47.4169922,44,47,44h-5.5722656l2.9433594-8.0932617   L52,44.3837891V55.4853516z"></path><path d="M28.9238281,2.6171875C28.7695313,2.2436523,28.4042969,2,28,2H3C2.4472656,2,2,2.4477539,2,3v25   c0,0.4042969,0.2431641,0.769043,0.6171875,0.9238281C2.7412109,28.9750977,2.8710938,29,3,29   c0.2597656,0,0.515625-0.1015625,0.7070313-0.2929688l25-25C28.9931641,3.4208984,29.0791016,2.9912109,28.9238281,2.6171875z    M21.5,8.0859375l-0.7929688-0.7929688l-1.4140625,1.4140625L20.0859375,9.5L18.5,11.0859375l-0.7929688-0.7929688   l-1.4140625,1.4140625L17.0859375,12.5L15.5,14.0859375l-0.7929688-0.7929688l-1.4140625,1.4140625L14.0859375,15.5   L12.5,17.0859375l-0.7929688-0.7929688l-1.4140625,1.4140625L11.0859375,18.5L9.5,20.0859375l-0.7929688-0.7929688   l-1.4140625,1.4140625L8.0859375,21.5L4,25.5859375V4h21.5859375L21.5,8.0859375z"></path><path d="M6.5957031,17.9145508C6.7255859,17.972168,6.8632813,18,7,18c0.2441406,0,0.4853516-0.0893555,0.6728516-0.2602539l11-10   c0.3056641-0.277832,0.4091797-0.7148438,0.2597656-1.1005859C18.7841797,6.2539063,18.4130859,6,18,6H7   C6.4472656,6,6,6.4477539,6,7v10C6,17.3959961,6.2333984,17.7543945,6.5957031,17.9145508z M8,8h7.4130859L8,14.7392578V8z"></path><path d="M61,10h-6h-8V5c0-1.6542969-1.3457031-3-3-3s-3,1.3457031-3,3v5.5859375l-3.7070313,3.7070313   C37.1054688,14.4804688,37,14.7348633,37,15v6c0,0.5522461,0.4472656,1,1,1h3v1v5   c0,0.2651367,0.1054688,0.5195313,0.2929688,0.7070313l2,2C43.4882813,30.9023438,43.7441406,31,44,31   s0.5117188-0.0976563,0.7070313-0.2929688l2-2C46.8945313,28.5195313,47,28.2651367,47,28v-4h1   c0.265625,0,0.5195313-0.1054688,0.7070313-0.2929688L51.4140625,21H55h6c0.5527344,0,1-0.4477539,1-1v-9   C62,10.4477539,61.5527344,10,61,10z M43.4421997,18.0545654c-0.0579834,0.0108032-0.1126099,0.0296021-0.1695557,0.0436401   C43.1813354,18.1207886,43.0879517,18.1375732,43,18.168457V8h2v3v7h-1C43.8099976,18,43.6241455,18.020813,43.4421997,18.0545654z    M44,4c0.5517578,0,1,0.4487305,1,1v1h-2V5C43,4.4487305,43.4482422,4,44,4z M39,15.4140625l2-2V20h-2V15.4140625z M45,27.5859375   l-1,1l-1-1V24h2V27.5859375z M51,19c-0.265625,0-0.5195313,0.1054688-0.7070313,0.2929688L47.5859375,22H46h-3v-1   c0-0.2670898,0.1025391-0.5131836,0.3066406-0.7124023C43.4863281,20.1020508,43.7333984,20,44,20h2c0.5527344,0,1-0.4477539,1-1   v-7h7v7H51z M60,19h-4v-7h4V19z"></path><polygon points="43,57 41,57 41,55 39,55 39,57 37,57 37,53 35,53 35,57 33,57 33,55 31,55 31,57 29,57 29,53 27,53 27,57 25,57    25,55 23,55 23,57 21,57 21,53 19,53 19,57 19,58 19,59 45,59 45,58 45,57 45,53 43,53  "></polygon></g></svg>