<?xml version="1.0" standalone="no"?><!DOCTYPE svg PUBLIC "-//W3C//DTD SVG 1.1//EN" "http://www.w3.org/Graphics/SVG/1.1/DTD/svg11.dtd"><svg t="1632971111509" class="icon" viewBox="0 0 1024 1024" version="1.1" xmlns="http://www.w3.org/2000/svg" p-id="5957" xmlns:xlink="http://www.w3.org/1999/xlink" width="64" height="64"><defs><style type="text/css"></style></defs><path d="M628.727572 894.841152v29.919342c0 23.809053-17.488066 43.614815-40.243621 46.986008l-7.374486 27.180247c-4.003292 14.748971-17.277366 25.073251-32.658436 25.073251h-73.112757c-15.38107 0-28.655144-10.32428-32.658437-25.073251l-7.163786-27.180247c-22.966255-3.581893-40.454321-23.176955-40.454321-47.196708v-29.919341c0-16.013169 12.852675-28.865844 28.865844-28.865844h175.934156c16.013169 0.2107 28.865844 13.063374 28.865844 29.076543z m135.479835-403.279012c0 68.055967-26.969547 129.790947-70.795061 175.091358-33.290535 34.554733-54.781893 78.590947-61.945679 125.576955-3.160494 20.22716-20.64856 35.186831-41.29712 35.186831h-156.549794c-20.43786 0-38.136626-14.748971-41.08642-34.976132-7.374486-46.986008-29.076543-91.654321-62.367078-125.998354-42.982716-44.668313-69.741564-105.349794-70.373662-172.141563-1.474897-140.325926 110.195885-253.893004 250.52181-254.946502 140.115226-1.053498 253.893004 112.302881 253.893004 252.207407z m-223.762963-152.757202c0-15.59177-12.641975-28.444444-28.444444-28.444444-100.293004 0-182.044444 81.540741-182.044444 182.044444 0 15.59177 12.641975 28.444444 28.444444 28.444445 15.59177 0 28.444444-12.641975 28.444444-28.444445 0-69.109465 56.25679-125.155556 125.155556-125.155555 15.802469 0 28.444444-12.641975 28.444444-28.444445zM512 156.549794c15.59177 0 28.444444-12.641975 28.444444-28.444444V28.444444c0-15.59177-12.641975-28.444444-28.444444-28.444444s-28.444444 12.641975-28.444444 28.444444v99.660906c0 15.802469 12.852675 28.444444 28.444444 28.444444zM177.198354 491.35144c0-15.59177-12.641975-28.444444-28.444445-28.444444H49.093004c-15.59177 0-28.444444 12.641975-28.444444 28.444444 0 15.59177 12.641975 28.444444 28.444444 28.444445h99.660905c15.802469 0 28.444444-12.641975 28.444445-28.444445z m797.708642-28.444444h-99.660905c-15.59177 0-28.444444 12.641975-28.444445 28.444444 0 15.59177 12.641975 28.444444 28.444445 28.444445h99.660905c15.59177 0 28.444444-12.641975 28.444444-28.444445 0-15.59177-12.641975-28.444444-28.444444-28.444444zM235.140741 728.177778l-70.584362 70.584362c-11.167078 11.167078-11.167078 29.076543 0 40.243621 5.478189 5.478189 12.852675 8.217284 20.016461 8.217284s14.538272-2.739095 20.01646-8.217284l70.584363-70.584362c11.167078-11.167078 11.167078-29.076543 0-40.243621-10.956379-11.167078-29.076543-11.167078-40.032922 0z m533.702057-465.224692c7.163786 0 14.538272-2.739095 20.016461-8.217284l70.584362-70.584362c11.167078-11.167078 11.167078-29.076543 0-40.243621-11.167078-11.167078-29.076543-11.167078-40.243621 0l-70.584362 70.584362c-11.167078 11.167078-11.167078 29.076543 0 40.243621 5.688889 5.478189 12.852675 8.217284 20.22716 8.217284z m-533.702057-8.427983c5.478189 5.478189 12.852675 8.217284 20.016461 8.217284s14.538272-2.739095 20.016461-8.217284c11.167078-11.167078 11.167078-29.076543 0-40.243622L204.5893 143.697119c-11.167078-11.167078-29.076543-11.167078-40.243621 0-11.167078 11.167078-11.167078 29.076543 0 40.243622l70.795062 70.584362z m553.718518 473.652675c-11.167078-11.167078-29.076543-11.167078-40.243621 0-11.167078 11.167078-11.167078 29.076543 0 40.243621l70.584362 70.584362c5.478189 5.478189 12.852675 8.217284 20.016461 8.217284s14.538272-2.739095 20.016461-8.217284c11.167078-11.167078 11.167078-29.076543 0-40.243621l-70.373663-70.584362z" p-id="5958" fill="#ffffff"></path></svg>