<?xml version="1.0" standalone="no"?><!DOCTYPE svg PUBLIC "-//W3C//DTD SVG 1.1//EN" "http://www.w3.org/Graphics/SVG/1.1/DTD/svg11.dtd"><svg t="1632971063576" class="icon" viewBox="0 0 1024 1024" version="1.1" xmlns="http://www.w3.org/2000/svg" p-id="5470" xmlns:xlink="http://www.w3.org/1999/xlink" width="64" height="64"><defs><style type="text/css"></style></defs><path d="M581.8 684.7c-3.5-3.5-9.2-3.5-12.7 0L438.4 815.4c-60.5 60.5-162.7 66.9-229.5 0-66.9-66.9-60.5-169 0-229.5l130.7-130.7c3.5-3.5 3.5-9.2 0-12.7l-44.8-44.8c-3.5-3.5-9.2-3.5-12.7 0L151.4 528.4c-95.2 95.2-95.2 249.2 0 344.2s249.2 95.2 344.2 0L626.3 742c3.5-3.5 3.5-9.2 0-12.7l-44.5-44.6z m290.9-533.3c-95.2-95.2-249.2-95.2-344.2 0L397.6 282.1c-3.5 3.5-3.5 9.2 0 12.7l44.7 44.7c3.5 3.5 9.2 3.5 12.7 0l130.7-130.7c60.5-60.5 162.7-66.9 229.5 0 66.9 66.9 60.5 169 0 229.5L684.5 569.1c-3.5 3.5-3.5 9.2 0 12.7l44.8 44.8c3.5 3.5 9.2 3.5 12.7 0l130.7-130.7c95.1-95.2 95.1-249.4 0-344.5z" p-id="5471" fill="#4fbdea"></path><path d="M622.4 354.9c-3.5-3.5-9.2-3.5-12.7 0L354.9 609.7c-3.5 3.5-3.5 9.2 0 12.7l44.5 44.5c3.5 3.5 9.2 3.5 12.7 0l254.7-254.7c3.5-3.5 3.5-9.2 0-12.7l-44.4-44.6z" p-id="5472" fill="#4fbdea"></path></svg>