<?xml version="1.0" standalone="no"?><!DOCTYPE svg PUBLIC "-//W3C//DTD SVG 1.1//EN" "http://www.w3.org/Graphics/SVG/1.1/DTD/svg11.dtd"><svg t="1632971475774" class="icon" viewBox="0 0 1024 1024" version="1.1" xmlns="http://www.w3.org/2000/svg" p-id="11756" xmlns:xlink="http://www.w3.org/1999/xlink" width="64" height="64"><defs><style type="text/css"></style></defs><path d="M895.4 415.7H607.5V127.8c0-35.3-28.7-64-64-64h-64c-35.3 0-64 28.7-64 64v287.9H127.6c-35.3 0-64 28.7-64 64v64c0 35.3 28.7 64 64 64h287.9v287.9c0 35.3 28.7 64 64 64h64c35.3 0 64-28.7 64-64V607.7h287.9c35.3 0 64-28.7 64-64v-64c-0.1-35.3-28.7-64-64-64z" p-id="11757" fill="#282828"></path></svg>