<svg height='100px' width='100px'  fill="#000000" xmlns="http://www.w3.org/2000/svg" xmlns:xlink="http://www.w3.org/1999/xlink" version="1.1" x="0px" y="0px" viewBox="0 0 100 100" style="enable-background:new 0 0 100 100;" xml:space="preserve"><g><path d="M84.4,14.2H15.6c-6.1,0-11,4.9-11,11v8.4v41.2c0,6.1,4.9,11,11,11h68.8c6.1,0,11-4.9,11-11V33.6v-8.4   C95.4,19.2,90.5,14.2,84.4,14.2z M91.4,74.8c0,3.9-3.1,7-7,7H15.6c-3.9,0-7-3.1-7-7V33.6h82.8V74.8z M91.4,29.6H8.6v-4.4   c0-3.9,3.1-7,7-7h68.8c3.9,0,7,3.1,7,7V29.6z"></path><circle cx="14.7" cy="24" r="3.4"></circle><circle cx="25" cy="24" r="3.4"></circle><circle cx="35.4" cy="24" r="3.4"></circle><path d="M63.2,71.6c0.4,0.4,0.9,0.6,1.4,0.6c0.5,0,1-0.2,1.4-0.6l12.8-12.8c0.8-0.8,0.8-2,0-2.8L66,43.1c-0.8-0.8-2-0.8-2.8,0   c-0.8,0.8-0.8,2,0,2.8l11.4,11.4L63.2,68.7C62.4,69.5,62.4,70.8,63.2,71.6z"></path><path d="M34,71.6c0.4,0.4,0.9,0.6,1.4,0.6s1-0.2,1.4-0.6c0.8-0.8,0.8-2,0-2.8L25.4,57.3L36.8,46c0.8-0.8,0.8-2,0-2.8   c-0.8-0.8-2-0.8-2.8,0L21.2,55.9c-0.8,0.8-0.8,2,0,2.8L34,71.6z"></path><path d="M42.2,71.9c0.3,0.2,0.6,0.2,0.9,0.2c0.7,0,1.4-0.4,1.8-1.1l13.8-25.6c0.5-1,0.2-2.2-0.8-2.7c-1-0.5-2.2-0.2-2.7,0.8   L41.4,69.2C40.8,70.2,41.2,71.4,42.2,71.9z"></path></g></svg>