<svg viewBox="6 6 23 23" fill="currentColor" xmlns="http://www.w3.org/2000/svg">
  <path d="M25.4728 10.3104C23.9963 9.62077 22.4176 9.1196 20.767 8.83423C20.5643 9.20006 20.3275 9.69212 20.1642 10.0836C18.4097 9.82015 16.6712 9.82015 14.9489 10.0836C14.7857 9.69212 14.5435 9.20006 14.339 8.83423C12.6867 9.1196 11.1061 9.62261 9.62959 10.314C6.65146 14.8064 5.84414 19.1872 6.2478 23.5058C8.22305 24.9782 10.1373 25.8727 12.0193 26.458C12.4839 25.8196 12.8983 25.141 13.2553 24.4258C12.5754 24.1679 11.9242 23.8497 11.3088 23.4802C11.4721 23.3594 11.6318 23.2332 11.786 23.1034C15.5392 24.8557 19.6171 24.8557 23.3254 23.1034C23.4815 23.2332 23.6411 23.3594 23.8026 23.4802C23.1854 23.8515 22.5324 24.1697 21.8525 24.4277C22.2095 25.141 22.6221 25.8215 23.0885 26.4598C24.9723 25.8745 26.8883 24.9801 28.8636 23.5058C29.3372 18.4994 28.0545 14.1589 25.4728 10.3104ZM13.7667 20.8499C12.64 20.8499 11.7161 19.7999 11.7161 18.5214C11.7161 17.2428 12.6203 16.1911 13.7667 16.1911C14.9131 16.1911 15.837 17.241 15.8173 18.5214C15.819 19.7999 14.9131 20.8499 13.7667 20.8499ZM21.3447 20.8499C20.2181 20.8499 19.2941 19.7999 19.2941 18.5214C19.2941 17.2428 20.1983 16.1911 21.3447 16.1911C22.4911 16.1911 23.4151 17.241 23.3953 18.5214C23.3953 19.7999 22.4911 20.8499 21.3447 20.8499Z"/>
</svg>
