<svg height='100px' width='100px'  fill="#000000" xmlns="http://www.w3.org/2000/svg" xmlns:xlink="http://www.w3.org/1999/xlink" version="1.1" x="0px" y="0px" viewBox="0 0 512 512" style="enable-background:new 0 0 512 512;" xml:space="preserve"><g><g><g><path d="M269,381.461c-77.196,0-140-61.906-140-137.999c0-34.387,12.909-67.332,36.348-92.765     c3.743-4.062,10.069-4.32,14.13-0.577c4.062,3.743,4.319,10.069,0.577,14.13C160.029,185.98,149,214.111,149,243.462     c0,65.064,53.832,117.999,120,117.999c66.168,0,120-52.935,120-117.999c0-65.065-53.832-118-120-118     c-18.218,0-35.71,3.909-51.991,11.617c-4.992,2.362-10.955,0.232-13.317-4.759c-2.363-4.991-0.233-10.954,4.759-13.317     c18.977-8.985,39.348-13.541,60.549-13.541c77.196,0,140,61.907,140,138C409,319.555,346.196,381.461,269,381.461z"></path></g><g><path d="M123.004,388.053c-2.643,0-5.281-1.041-7.247-3.107C79.157,346.471,59,296.225,59,243.462     c0-114.098,94.206-206.923,210-206.923c5.522,0,10,4.477,10,10s-4.478,10-10,10c-104.766,0-190,83.854-190,186.923     c0,47.607,18.2,92.958,51.248,127.698c3.807,4.002,3.649,10.331-0.353,14.138C127.96,387.139,125.48,388.053,123.004,388.053z"></path></g><g><path d="M269,450.385c-0.072,0-0.146-0.001-0.218-0.002l-4.028-0.088c-5.521-0.121-9.9-4.694-9.78-10.216     c0.12-5.521,4.655-9.881,10.215-9.78l3.918,0.086C373.821,430.323,459,346.494,459,243.462     c0-59.603-27.892-114.253-76.523-149.938c-4.453-3.268-5.414-9.526-2.146-13.979c3.267-4.452,9.527-5.413,13.979-2.146     c25.697,18.856,46.998,43.629,61.602,71.642C471.231,178.432,479,210.2,479,243.462C479,357.56,384.794,450.385,269,450.385z      M214.988,449.208c-0.074,0-0.147-0.001-0.222-0.002l-171.984-3.745c-5.521-0.121-9.9-4.694-9.78-10.216s4.69-9.857,10.215-9.78     l171.984,3.745c5.521,0.121,9.9,4.694,9.78,10.216C224.863,444.873,220.409,449.208,214.988,449.208z"></path></g><g><path d="M463,455.461h-90c-5.522,0-10-4.478-10-10s4.478-10,10-10h73.819l-2.764-5.528c-2.47-4.939-0.468-10.946,4.473-13.416     c4.937-2.471,10.946-0.468,13.416,4.473l10,20c1.55,3.1,1.384,6.781-0.438,9.729C469.685,453.666,466.466,455.461,463,455.461z"></path></g><g><path d="M452.992,475.463c-1.503,0-3.028-0.34-4.464-1.058c-4.94-2.47-6.942-8.477-4.473-13.416l10-20     c2.47-4.941,8.476-6.943,13.416-4.473c4.94,2.47,6.942,8.477,4.473,13.416l-10,20     C460.192,473.438,456.66,475.463,452.992,475.463z"></path></g><g><path d="M373.001,115.465c-1.048,0-2.114-0.167-3.163-0.516c-5.239-1.747-8.071-7.41-6.325-12.649l10-30     c1.361-4.083,5.183-6.838,9.487-6.838h30c5.522,0,10,4.477,10,10s-4.478,10-10,10h-22.792l-7.721,23.162     C381.09,112.814,377.188,115.464,373.001,115.465z"></path></g><g><path d="M234.688,282.326h-36.623c-3.573,0-6.874-1.906-8.66-5l-18.311-31.715c-1.787-3.094-1.787-6.906,0-10l18.311-31.716     c1.786-3.094,5.087-5,8.66-5h36.623c3.573,0,6.874,1.906,8.66,5l18.312,31.716c1.786,3.094,1.786,6.906,0,10l-18.312,31.715     C241.563,280.42,238.261,282.326,234.688,282.326z M203.839,262.326h25.076l12.538-21.715l-12.538-21.716h-25.076l-12.537,21.716     L203.839,262.326z"></path></g><g><path d="M314.688,328.895h-36.623c-3.572,0-6.874-1.906-8.66-5l-18.312-31.717c-1.787-3.094-1.787-6.906,0-10l18.312-31.716     c1.786-3.094,5.088-5,8.66-5h36.623c3.572,0,6.874,1.906,8.66,5l18.312,31.716c1.786,3.094,1.786,6.906,0,10l-18.312,31.717     C321.563,326.988,318.261,328.895,314.688,328.895z M283.839,308.895h25.076l12.538-21.717l-12.538-21.716h-25.076     l-12.538,21.716L283.839,308.895z"></path></g><g><path d="M314.688,238.895h-36.623c-3.572,0-6.874-1.906-8.66-5l-18.312-31.716c-1.787-3.094-1.787-6.906,0-10l18.312-31.716     c1.786-3.094,5.088-5,8.66-5h36.623c3.572,0,6.874,1.906,8.66,5l18.312,31.716c1.786,3.094,1.786,6.906,0,10l-18.312,31.716     C321.563,236.989,318.261,238.895,314.688,238.895z M283.839,218.895h25.076l12.538-21.716l-12.538-21.716h-25.076     l-12.538,21.716L283.839,218.895z"></path></g><g><path d="M233,315.46c-2.63,0-5.21-1.07-7.07-2.93c-1.86-1.86-2.93-4.44-2.93-7.07s1.07-5.21,2.93-7.07     c1.86-1.859,4.44-2.93,7.07-2.93c2.63,0,5.21,1.07,7.07,2.93c1.86,1.86,2.93,4.44,2.93,7.07s-1.07,5.21-2.93,7.07     C238.21,314.39,235.63,315.46,233,315.46z"></path></g><g><path d="M233,185.46c-2.63,0-5.21-1.07-7.07-2.93c-1.86-1.86-2.93-4.44-2.93-7.07c0-2.63,1.07-5.21,2.93-7.07     c1.86-1.86,4.44-2.93,7.07-2.93c2.63,0,5.21,1.07,7.07,2.93c1.86,1.86,2.93,4.44,2.93,7.07c0,2.63-1.07,5.21-2.93,7.07     S235.63,185.46,233,185.46z"></path></g><g><path d="M343,255.46c-2.63,0-5.21-1.07-7.07-2.93s-2.93-4.44-2.93-7.07c0-2.63,1.069-5.21,2.93-7.07     c1.86-1.86,4.44-2.93,7.07-2.93s5.21,1.07,7.069,2.93c1.86,1.86,2.931,4.44,2.931,7.07c0,2.63-1.07,5.21-2.931,7.07     C348.21,254.39,345.63,255.46,343,255.46z"></path></g></g></g></svg>