<?xml version="1.0" encoding="UTF-8"?>
<svg id="_图层_2" data-name="图层 2" xmlns="http://www.w3.org/2000/svg" viewBox="0 0 628.3 783.82">
  <defs>
    <style>
      .cls-1 {
        opacity: .1;
      }

      .cls-2 {
        fill: #999;
      }

      .cls-2, .cls-3, .cls-4, .cls-5 {
        stroke-width: 0px;
      }

      .cls-6 {
        opacity: .2;
      }

      .cls-7 {
        opacity: .5;
      }

      .cls-3 {
        fill: #4f39f6;
      }

      .cls-3, .cls-4 {
        fill-rule: evenodd;
      }

      .cls-4 {
        fill: #fff;
      }

      .cls-5 {
        fill: #ccc;
      }
    </style>
  </defs>
  <g id="_图层_1-2" data-name="图层 1">
    <g>
      <path class="cls-3" d="M517.23,672.57l111.07,110.61-232.3.64,121.23-111.25Z"/>
      <path class="cls-3" d="M235.42,391.91l281.81,280.66-390.95-155.93,109.13-124.72Z"/>
      <g class="cls-1">
        <path class="cls-4" d="M235.42,391.91l281.81,280.66-390.95-155.93,109.13-124.72Z"/>
      </g>
      <path class="cls-3" d="M517.23,672.57l-121.32,111.25L126.29,516.63l390.95,155.93Z"/>
      <path class="cls-3" d="M391.38,1.06l91.62,140.51L622.85,0"/>
      <g class="cls-1">
        <path class="cls-4" d="M517.23,672.57l111.07,110.61-232.3.64,121.23-111.25Z"/>
      </g>
      <g class="cls-1">
        <path class="cls-4" d="M391.38,1.06l91.62,140.51L622.85,0"/>
      </g>
      <path class="cls-3" d="M391.38,1.06l-205.07,205.32,297-64.82L391.38,1.06Z"/>
      <path class="cls-3" d="M185.56,206.6l49.86,185.31,247.58-250.34-297.43,65.03Z"/>
      <path class="cls-3" d="M0,391.91l185.56-185.31,49.86,185.31H0Z"/>
      <g class="cls-7">
        <path class="cls-4" d="M517.23,672.57l-121.32,111.25L126.29,516.63l390.95,155.93Z"/>
      </g>
      <g class="cls-7">
        <path class="cls-4" d="M0,391.91l185.56-185.31,49.86,185.31H0Z"/>
      </g>
      <path class="cls-3" d="M126.29,516.63l109.13-124.72H0"/>
      <g class="cls-6">
        <path class="cls-4" d="M185.56,206.6l49.86,185.31,247.58-250.34-297.43,65.03Z"/>
      </g>
      <g class="cls-6">
        <path class="cls-4" d="M126.29,516.63l109.13-124.72H0"/>
      </g>
      <g id="path232">
        <path class="cls-2" d="M0,106.99V0h215.36l-106.96,106.99C49.57,165.83,1.11,213.98.72,213.98s-.72-48.15-.72-106.99h0Z"/>
      </g>
      <g id="path232-3">
        <path class="cls-5" d="M107.68,783.82H0v-216.75l107.68,107.65c59.22,59.21,107.68,107.98,107.68,108.37s-48.46.73-107.68.73h0Z"/>
      </g>
    </g>
  </g>
</svg>